# MagicaVoxel @ Ephtracy

# material
mtllib cesped2.mtl
usemtl palette

# normals
vn -1 0 0
vn 1 0 0
vn 0 0 1
vn 0 0 -1
vn 0 -1 0
vn 0 1 0

# texcoords
vt 0.0449219 0.5
vt 0.794922 0.5
vt 0.958984 0.5

# verts
v -6.5 0 -4.5
v -6.5 0 -5.5
v -6.5 2 -4.5
v -6.5 2 -5.5
v -5.5 0 6.5
v -5.5 0 5.5
v -5.5 1 6.5
v -5.5 1 5.5
v -4.5 0 0.5
v -4.5 0 -0.5
v -4.5 3 0.5
v -4.5 3 -0.5
v -3.5 2 -3.5
v -3.5 2 -4.5
v -3.5 3 -3.5
v -3.5 3 -4.5
v -2.5 0 -3.5
v -2.5 0 -4.5
v -2.5 2 -2.5
v -2.5 2 -3.5
v -2.5 2 -4.5
v -2.5 2 -5.5
v -2.5 3 -2.5
v -2.5 3 -3.5
v -2.5 3 -4.5
v -2.5 3 -5.5
v 0.5 2 5.5
v 0.5 2 4.5
v 0.5 3 5.5
v 0.5 3 4.5
v 1.5 0 5.5
v 1.5 0 4.5
v 1.5 0 1.5
v 1.5 0 0.5
v 1.5 1 1.5
v 1.5 1 0.5
v 1.5 2 6.5
v 1.5 2 5.5
v 1.5 2 4.5
v 1.5 2 3.5
v 1.5 3 6.5
v 1.5 3 5.5
v 1.5 3 4.5
v 1.5 3 3.5
v 2.5 0 -6.5
v 2.5 0 -7.5
v 2.5 1 -6.5
v 2.5 1 -7.5
v 5.5 0 -0.5
v 5.5 0 -1.5
v 5.5 2 -0.5
v 5.5 2 -1.5
v -5.5 0 -4.5
v -5.5 0 -5.5
v -5.5 2 -4.5
v -5.5 2 -5.5
v -4.5 0 6.5
v -4.5 0 5.5
v -4.5 1 6.5
v -4.5 1 5.5
v -3.5 0 0.5
v -3.5 0 -0.5
v -3.5 3 0.5
v -3.5 3 -0.5
v -1.5 0 -3.5
v -1.5 0 -4.5
v -1.5 2 -2.5
v -1.5 2 -3.5
v -1.5 2 -4.5
v -1.5 2 -5.5
v -1.5 3 -2.5
v -1.5 3 -3.5
v -1.5 3 -4.5
v -1.5 3 -5.5
v -0.5 2 -3.5
v -0.5 2 -4.5
v -0.5 3 -3.5
v -0.5 3 -4.5
v 2.5 0 5.5
v 2.5 0 4.5
v 2.5 0 1.5
v 2.5 0 0.5
v 2.5 1 1.5
v 2.5 1 0.5
v 2.5 2 6.5
v 2.5 2 5.5
v 2.5 2 4.5
v 2.5 2 3.5
v 2.5 3 6.5
v 2.5 3 5.5
v 2.5 3 4.5
v 2.5 3 3.5
v 3.5 0 -6.5
v 3.5 0 -7.5
v 3.5 1 -6.5
v 3.5 1 -7.5
v 3.5 2 5.5
v 3.5 2 4.5
v 3.5 3 5.5
v 3.5 3 4.5
v 6.5 0 -0.5
v 6.5 0 -1.5
v 6.5 2 -0.5
v 6.5 2 -1.5
v -5.5 0 6.5
v -5.5 1 6.5
v -4.5 0 6.5
v -4.5 1 6.5
v 1.5 2 6.5
v 1.5 3 6.5
v 2.5 2 6.5
v 2.5 3 6.5
v 0.5 2 5.5
v 0.5 3 5.5
v 1.5 0 5.5
v 1.5 2 5.5
v 1.5 3 5.5
v 2.5 0 5.5
v 2.5 2 5.5
v 2.5 3 5.5
v 3.5 2 5.5
v 3.5 3 5.5
v 1.5 0 1.5
v 1.5 1 1.5
v 2.5 0 1.5
v 2.5 1 1.5
v -4.5 0 0.5
v -4.5 3 0.5
v -3.5 0 0.5
v -3.5 3 0.5
v 5.5 0 -0.5
v 5.5 2 -0.5
v 6.5 0 -0.5
v 6.5 2 -0.5
v -2.5 2 -2.5
v -2.5 3 -2.5
v -1.5 2 -2.5
v -1.5 3 -2.5
v -3.5 2 -3.5
v -3.5 3 -3.5
v -2.5 0 -3.5
v -2.5 2 -3.5
v -2.5 3 -3.5
v -1.5 0 -3.5
v -1.5 2 -3.5
v -1.5 3 -3.5
v -0.5 2 -3.5
v -0.5 3 -3.5
v -6.5 0 -4.5
v -6.5 2 -4.5
v -5.5 0 -4.5
v -5.5 2 -4.5
v 2.5 0 -6.5
v 2.5 1 -6.5
v 3.5 0 -6.5
v 3.5 1 -6.5
v -5.5 0 5.5
v -5.5 1 5.5
v -4.5 0 5.5
v -4.5 1 5.5
v 0.5 2 4.5
v 0.5 3 4.5
v 1.5 0 4.5
v 1.5 2 4.5
v 1.5 3 4.5
v 2.5 0 4.5
v 2.5 2 4.5
v 2.5 3 4.5
v 3.5 2 4.5
v 3.5 3 4.5
v 1.5 2 3.5
v 1.5 3 3.5
v 2.5 2 3.5
v 2.5 3 3.5
v 1.5 0 0.5
v 1.5 1 0.5
v 2.5 0 0.5
v 2.5 1 0.5
v -4.5 0 -0.5
v -4.5 3 -0.5
v -3.5 0 -0.5
v -3.5 3 -0.5
v 5.5 0 -1.5
v 5.5 2 -1.5
v 6.5 0 -1.5
v 6.5 2 -1.5
v -3.5 2 -4.5
v -3.5 3 -4.5
v -2.5 0 -4.5
v -2.5 2 -4.5
v -2.5 3 -4.5
v -1.5 0 -4.5
v -1.5 2 -4.5
v -1.5 3 -4.5
v -0.5 2 -4.5
v -0.5 3 -4.5
v -6.5 0 -5.5
v -6.5 2 -5.5
v -5.5 0 -5.5
v -5.5 2 -5.5
v -2.5 2 -5.5
v -2.5 3 -5.5
v -1.5 2 -5.5
v -1.5 3 -5.5
v 2.5 0 -7.5
v 2.5 1 -7.5
v 3.5 0 -7.5
v 3.5 1 -7.5
v -5.5 0 6.5
v -4.5 0 6.5
v -5.5 0 5.5
v -4.5 0 5.5
v 1.5 0 5.5
v 2.5 0 5.5
v 1.5 0 4.5
v 2.5 0 4.5
v 1.5 0 1.5
v 2.5 0 1.5
v -4.5 0 0.5
v -3.5 0 0.5
v 1.5 0 0.5
v 2.5 0 0.5
v -4.5 0 -0.5
v -3.5 0 -0.5
v 5.5 0 -0.5
v 6.5 0 -0.5
v 5.5 0 -1.5
v 6.5 0 -1.5
v -2.5 0 -3.5
v -1.5 0 -3.5
v -6.5 0 -4.5
v -5.5 0 -4.5
v -2.5 0 -4.5
v -1.5 0 -4.5
v -6.5 0 -5.5
v -5.5 0 -5.5
v 2.5 0 -6.5
v 3.5 0 -6.5
v 2.5 0 -7.5
v 3.5 0 -7.5
v 1.5 2 6.5
v 2.5 2 6.5
v 0.5 2 5.5
v 1.5 2 5.5
v 2.5 2 5.5
v 3.5 2 5.5
v 0.5 2 4.5
v 1.5 2 4.5
v 2.5 2 4.5
v 3.5 2 4.5
v 1.5 2 3.5
v 2.5 2 3.5
v -2.5 2 -2.5
v -1.5 2 -2.5
v -3.5 2 -3.5
v -2.5 2 -3.5
v -1.5 2 -3.5
v -0.5 2 -3.5
v -3.5 2 -4.5
v -2.5 2 -4.5
v -1.5 2 -4.5
v -0.5 2 -4.5
v -2.5 2 -5.5
v -1.5 2 -5.5
v -5.5 1 6.5
v -4.5 1 6.5
v -5.5 1 5.5
v -4.5 1 5.5
v 1.5 1 1.5
v 2.5 1 1.5
v 1.5 1 0.5
v 2.5 1 0.5
v 2.5 1 -6.5
v 3.5 1 -6.5
v 2.5 1 -7.5
v 3.5 1 -7.5
v 5.5 2 -0.5
v 6.5 2 -0.5
v 5.5 2 -1.5
v 6.5 2 -1.5
v -6.5 2 -4.5
v -5.5 2 -4.5
v -6.5 2 -5.5
v -5.5 2 -5.5
v 1.5 3 6.5
v 2.5 3 6.5
v 0.5 3 5.5
v 1.5 3 5.5
v 2.5 3 5.5
v 3.5 3 5.5
v 0.5 3 4.5
v 1.5 3 4.5
v 2.5 3 4.5
v 3.5 3 4.5
v 1.5 3 3.5
v 2.5 3 3.5
v -4.5 3 0.5
v -3.5 3 0.5
v -4.5 3 -0.5
v -3.5 3 -0.5
v -2.5 3 -2.5
v -1.5 3 -2.5
v -3.5 3 -3.5
v -2.5 3 -3.5
v -1.5 3 -3.5
v -0.5 3 -3.5
v -3.5 3 -4.5
v -2.5 3 -4.5
v -1.5 3 -4.5
v -0.5 3 -4.5
v -2.5 3 -5.5
v -1.5 3 -5.5

# faces
f 3/2/1 2/2/1 1/2/1
f 4/2/1 2/2/1 3/2/1
f 7/2/1 6/2/1 5/2/1
f 8/2/1 6/2/1 7/2/1
f 11/2/1 10/2/1 9/2/1
f 12/2/1 10/2/1 11/2/1
f 15/3/1 14/3/1 13/3/1
f 16/3/1 14/3/1 15/3/1
f 20/2/1 18/2/1 17/2/1
f 21/2/1 18/2/1 20/2/1
f 23/3/1 20/3/1 19/3/1
f 24/3/1 20/3/1 23/3/1
f 25/3/1 22/3/1 21/3/1
f 26/3/1 22/3/1 25/3/1
f 29/3/1 28/3/1 27/3/1
f 30/3/1 28/3/1 29/3/1
f 35/2/1 34/2/1 33/2/1
f 36/2/1 34/2/1 35/2/1
f 38/2/1 32/2/1 31/2/1
f 39/2/1 32/2/1 38/2/1
f 41/3/1 38/3/1 37/3/1
f 42/3/1 38/3/1 41/3/1
f 43/3/1 40/3/1 39/3/1
f 44/3/1 40/3/1 43/3/1
f 47/2/1 46/2/1 45/2/1
f 48/2/1 46/2/1 47/2/1
f 51/2/1 50/2/1 49/2/1
f 52/2/1 50/2/1 51/2/1
f 53/2/2 54/2/2 55/2/2
f 55/2/2 54/2/2 56/2/2
f 57/2/2 58/2/2 59/2/2
f 59/2/2 58/2/2 60/2/2
f 61/2/2 62/2/2 63/2/2
f 63/2/2 62/2/2 64/2/2
f 65/2/2 66/2/2 68/2/2
f 68/2/2 66/2/2 69/2/2
f 67/3/2 68/3/2 71/3/2
f 71/3/2 68/3/2 72/3/2
f 69/3/2 70/3/2 73/3/2
f 73/3/2 70/3/2 74/3/2
f 75/3/2 76/3/2 77/3/2
f 77/3/2 76/3/2 78/3/2
f 81/2/2 82/2/2 83/2/2
f 83/2/2 82/2/2 84/2/2
f 79/2/2 80/2/2 86/2/2
f 86/2/2 80/2/2 87/2/2
f 85/3/2 86/3/2 89/3/2
f 89/3/2 86/3/2 90/3/2
f 87/3/2 88/3/2 91/3/2
f 91/3/2 88/3/2 92/3/2
f 93/2/2 94/2/2 95/2/2
f 95/2/2 94/2/2 96/2/2
f 97/3/2 98/3/2 99/3/2
f 99/3/2 98/3/2 100/3/2
f 101/2/2 102/2/2 103/2/2
f 103/2/2 102/2/2 104/2/2
f 107/2/3 106/2/3 105/2/3
f 108/2/3 106/2/3 107/2/3
f 111/3/3 110/3/3 109/3/3
f 112/3/3 110/3/3 111/3/3
f 116/3/3 114/3/3 113/3/3
f 117/3/3 114/3/3 116/3/3
f 118/2/3 116/2/3 115/2/3
f 119/2/3 116/2/3 118/2/3
f 121/3/3 120/3/3 119/3/3
f 122/3/3 120/3/3 121/3/3
f 125/2/3 124/2/3 123/2/3
f 126/2/3 124/2/3 125/2/3
f 129/2/3 128/2/3 127/2/3
f 130/2/3 128/2/3 129/2/3
f 133/2/3 132/2/3 131/2/3
f 134/2/3 132/2/3 133/2/3
f 137/3/3 136/3/3 135/3/3
f 138/3/3 136/3/3 137/3/3
f 142/3/3 140/3/3 139/3/3
f 143/3/3 140/3/3 142/3/3
f 144/2/3 142/2/3 141/2/3
f 145/2/3 142/2/3 144/2/3
f 147/3/3 146/3/3 145/3/3
f 148/3/3 146/3/3 147/3/3
f 151/2/3 150/2/3 149/2/3
f 152/2/3 150/2/3 151/2/3
f 155/2/3 154/2/3 153/2/3
f 156/2/3 154/2/3 155/2/3
f 157/2/4 158/2/4 159/2/4
f 159/2/4 158/2/4 160/2/4
f 161/3/4 162/3/4 164/3/4
f 164/3/4 162/3/4 165/3/4
f 163/2/4 164/2/4 166/2/4
f 166/2/4 164/2/4 167/2/4
f 167/3/4 168/3/4 169/3/4
f 169/3/4 168/3/4 170/3/4
f 171/3/4 172/3/4 173/3/4
f 173/3/4 172/3/4 174/3/4
f 175/2/4 176/2/4 177/2/4
f 177/2/4 176/2/4 178/2/4
f 179/2/4 180/2/4 181/2/4
f 181/2/4 180/2/4 182/2/4
f 183/2/4 184/2/4 185/2/4
f 185/2/4 184/2/4 186/2/4
f 187/3/4 188/3/4 190/3/4
f 190/3/4 188/3/4 191/3/4
f 189/2/4 190/2/4 192/2/4
f 192/2/4 190/2/4 193/2/4
f 193/3/4 194/3/4 195/3/4
f 195/3/4 194/3/4 196/3/4
f 197/2/4 198/2/4 199/2/4
f 199/2/4 198/2/4 200/2/4
f 201/3/4 202/3/4 203/3/4
f 203/3/4 202/3/4 204/3/4
f 205/2/4 206/2/4 207/2/4
f 207/2/4 206/2/4 208/2/4
f 211/2/5 210/2/5 209/2/5
f 212/2/5 210/2/5 211/2/5
f 215/2/5 214/2/5 213/2/5
f 216/2/5 214/2/5 215/2/5
f 221/2/5 218/2/5 217/2/5
f 222/2/5 218/2/5 221/2/5
f 223/2/5 220/2/5 219/2/5
f 224/2/5 220/2/5 223/2/5
f 227/2/5 226/2/5 225/2/5
f 228/2/5 226/2/5 227/2/5
f 233/2/5 230/2/5 229/2/5
f 234/2/5 230/2/5 233/2/5
f 235/2/5 232/2/5 231/2/5
f 236/2/5 232/2/5 235/2/5
f 239/2/5 238/2/5 237/2/5
f 240/2/5 238/2/5 239/2/5
f 244/3/5 242/3/5 241/3/5
f 245/3/5 242/3/5 244/3/5
f 247/3/5 244/3/5 243/3/5
f 248/3/5 244/3/5 247/3/5
f 249/3/5 246/3/5 245/3/5
f 250/3/5 246/3/5 249/3/5
f 251/3/5 249/3/5 248/3/5
f 252/3/5 249/3/5 251/3/5
f 256/3/5 254/3/5 253/3/5
f 257/3/5 254/3/5 256/3/5
f 259/3/5 256/3/5 255/3/5
f 260/3/5 256/3/5 259/3/5
f 261/3/5 258/3/5 257/3/5
f 262/3/5 258/3/5 261/3/5
f 263/3/5 261/3/5 260/3/5
f 264/3/5 261/3/5 263/3/5
f 265/2/6 266/2/6 267/2/6
f 267/2/6 266/2/6 268/2/6
f 269/2/6 270/2/6 271/2/6
f 271/2/6 270/2/6 272/2/6
f 273/2/6 274/2/6 275/2/6
f 275/2/6 274/2/6 276/2/6
f 277/2/6 278/2/6 279/2/6
f 279/2/6 278/2/6 280/2/6
f 281/2/6 282/2/6 283/2/6
f 283/2/6 282/2/6 284/2/6
f 285/3/6 286/3/6 288/3/6
f 288/3/6 286/3/6 289/3/6
f 287/3/6 288/3/6 291/3/6
f 288/1/6 289/1/6 292/1/6
f 291/3/6 288/3/6 292/3/6
f 289/3/6 290/3/6 293/3/6
f 292/1/6 289/1/6 293/1/6
f 293/3/6 290/3/6 294/3/6
f 292/3/6 293/3/6 295/3/6
f 295/3/6 293/3/6 296/3/6
f 297/2/6 298/2/6 299/2/6
f 299/2/6 298/2/6 300/2/6
f 301/3/6 302/3/6 304/3/6
f 304/3/6 302/3/6 305/3/6
f 303/3/6 304/3/6 307/3/6
f 304/1/6 305/1/6 308/1/6
f 307/3/6 304/3/6 308/3/6
f 305/3/6 306/3/6 309/3/6
f 308/1/6 305/1/6 309/1/6
f 309/3/6 306/3/6 310/3/6
f 308/3/6 309/3/6 311/3/6
f 311/3/6 309/3/6 312/3/6
