# MagicaVoxel @ Ephtracy

# material
mtllib cesped3.mtl
usemtl palette

# normals
vn -1 0 0
vn 1 0 0
vn 0 0 1
vn 0 0 -1
vn 0 -1 0
vn 0 1 0

# texcoords
vt 0.0449219 0.5
vt 0.794922 0.5
vt 0.841797 0.5
vt 0.958984 0.5

# verts
v -6.5 0 6.5
v -6.5 0 5.5
v -6.5 0 2.5
v -6.5 0 1.5
v -6.5 1 2.5
v -6.5 1 1.5
v -6.5 2 6.5
v -6.5 2 5.5
v -4.5 2 -4.5
v -4.5 2 -5.5
v -4.5 3 -4.5
v -4.5 3 -5.5
v -3.5 0 -4.5
v -3.5 0 -5.5
v -3.5 2 -3.5
v -3.5 2 -4.5
v -3.5 2 -5.5
v -3.5 2 -6.5
v -3.5 3 -3.5
v -3.5 3 -4.5
v -3.5 3 -5.5
v -3.5 3 -6.5
v -1.5 0 3.5
v -1.5 0 2.5
v -1.5 0 -1.5
v -1.5 0 -2.5
v -1.5 1 -1.5
v -1.5 1 -2.5
v -1.5 3 3.5
v -1.5 3 2.5
v 1.5 0 -1.5
v 1.5 0 -2.5
v 1.5 2 -1.5
v 1.5 2 -2.5
v 2.5 2 5.5
v 2.5 2 4.5
v 2.5 3 5.5
v 2.5 3 4.5
v 3.5 0 5.5
v 3.5 0 4.5
v 3.5 2 6.5
v 3.5 2 5.5
v 3.5 2 4.5
v 3.5 2 3.5
v 3.5 3 6.5
v 3.5 3 5.5
v 3.5 3 4.5
v 3.5 3 3.5
v 5.5 1 -4.5
v 5.5 1 -5.5
v 5.5 2 -4.5
v 5.5 2 -5.5
v 6.5 0 -4.5
v 6.5 0 -5.5
v 6.5 1 -3.5
v 6.5 1 -4.5
v 6.5 1 -5.5
v 6.5 1 -6.5
v 6.5 2 -3.5
v 6.5 2 -4.5
v 6.5 2 -5.5
v 6.5 2 -6.5
v -5.5 0 6.5
v -5.5 0 5.5
v -5.5 0 2.5
v -5.5 0 1.5
v -5.5 1 2.5
v -5.5 1 1.5
v -5.5 2 6.5
v -5.5 2 5.5
v -2.5 0 -4.5
v -2.5 0 -5.5
v -2.5 2 -3.5
v -2.5 2 -4.5
v -2.5 2 -5.5
v -2.5 2 -6.5
v -2.5 3 -3.5
v -2.5 3 -4.5
v -2.5 3 -5.5
v -2.5 3 -6.5
v -1.5 2 -4.5
v -1.5 2 -5.5
v -1.5 3 -4.5
v -1.5 3 -5.5
v -0.5 0 3.5
v -0.5 0 2.5
v -0.5 0 -1.5
v -0.5 0 -2.5
v -0.5 1 -1.5
v -0.5 1 -2.5
v -0.5 3 3.5
v -0.5 3 2.5
v 2.5 0 -1.5
v 2.5 0 -2.5
v 2.5 2 -1.5
v 2.5 2 -2.5
v 4.5 0 5.5
v 4.5 0 4.5
v 4.5 2 6.5
v 4.5 2 5.5
v 4.5 2 4.5
v 4.5 2 3.5
v 4.5 3 6.5
v 4.5 3 5.5
v 4.5 3 4.5
v 4.5 3 3.5
v 5.5 2 5.5
v 5.5 2 4.5
v 5.5 3 5.5
v 5.5 3 4.5
v 7.5 0 -4.5
v 7.5 0 -5.5
v 7.5 1 -3.5
v 7.5 1 -4.5
v 7.5 1 -5.5
v 7.5 1 -6.5
v 7.5 2 -3.5
v 7.5 2 -4.5
v 7.5 2 -5.5
v 7.5 2 -6.5
v 8.5 1 -4.5
v 8.5 1 -5.5
v 8.5 2 -4.5
v 8.5 2 -5.5
v -6.5 0 6.5
v -6.5 2 6.5
v -5.5 0 6.5
v -5.5 2 6.5
v 3.5 2 6.5
v 3.5 3 6.5
v 4.5 2 6.5
v 4.5 3 6.5
v 2.5 2 5.5
v 2.5 3 5.5
v 3.5 0 5.5
v 3.5 2 5.5
v 3.5 3 5.5
v 4.5 0 5.5
v 4.5 2 5.5
v 4.5 3 5.5
v 5.5 2 5.5
v 5.5 3 5.5
v -1.5 0 3.5
v -1.5 3 3.5
v -0.5 0 3.5
v -0.5 3 3.5
v -6.5 0 2.5
v -6.5 1 2.5
v -5.5 0 2.5
v -5.5 1 2.5
v -1.5 0 -1.5
v -1.5 1 -1.5
v -0.5 0 -1.5
v -0.5 1 -1.5
v 1.5 0 -1.5
v 1.5 2 -1.5
v 2.5 0 -1.5
v 2.5 2 -1.5
v -3.5 2 -3.5
v -3.5 3 -3.5
v -2.5 2 -3.5
v -2.5 3 -3.5
v 6.5 1 -3.5
v 6.5 2 -3.5
v 7.5 1 -3.5
v 7.5 2 -3.5
v -4.5 2 -4.5
v -4.5 3 -4.5
v -3.5 0 -4.5
v -3.5 2 -4.5
v -3.5 3 -4.5
v -2.5 0 -4.5
v -2.5 2 -4.5
v -2.5 3 -4.5
v -1.5 2 -4.5
v -1.5 3 -4.5
v 5.5 1 -4.5
v 5.5 2 -4.5
v 6.5 0 -4.5
v 6.5 1 -4.5
v 6.5 2 -4.5
v 7.5 0 -4.5
v 7.5 1 -4.5
v 7.5 2 -4.5
v 8.5 1 -4.5
v 8.5 2 -4.5
v -6.5 0 5.5
v -6.5 2 5.5
v -5.5 0 5.5
v -5.5 2 5.5
v 2.5 2 4.5
v 2.5 3 4.5
v 3.5 0 4.5
v 3.5 2 4.5
v 3.5 3 4.5
v 4.5 0 4.5
v 4.5 2 4.5
v 4.5 3 4.5
v 5.5 2 4.5
v 5.5 3 4.5
v 3.5 2 3.5
v 3.5 3 3.5
v 4.5 2 3.5
v 4.5 3 3.5
v -1.5 0 2.5
v -1.5 3 2.5
v -0.5 0 2.5
v -0.5 3 2.5
v -6.5 0 1.5
v -6.5 1 1.5
v -5.5 0 1.5
v -5.5 1 1.5
v -1.5 0 -2.5
v -1.5 1 -2.5
v -0.5 0 -2.5
v -0.5 1 -2.5
v 1.5 0 -2.5
v 1.5 2 -2.5
v 2.5 0 -2.5
v 2.5 2 -2.5
v -4.5 2 -5.5
v -4.5 3 -5.5
v -3.5 0 -5.5
v -3.5 2 -5.5
v -3.5 3 -5.5
v -2.5 0 -5.5
v -2.5 2 -5.5
v -2.5 3 -5.5
v -1.5 2 -5.5
v -1.5 3 -5.5
v 5.5 1 -5.5
v 5.5 2 -5.5
v 6.5 0 -5.5
v 6.5 1 -5.5
v 6.5 2 -5.5
v 7.5 0 -5.5
v 7.5 1 -5.5
v 7.5 2 -5.5
v 8.5 1 -5.5
v 8.5 2 -5.5
v -3.5 2 -6.5
v -3.5 3 -6.5
v -2.5 2 -6.5
v -2.5 3 -6.5
v 6.5 1 -6.5
v 6.5 2 -6.5
v 7.5 1 -6.5
v 7.5 2 -6.5
v -6.5 0 6.5
v -5.5 0 6.5
v -6.5 0 5.5
v -5.5 0 5.5
v 3.5 0 5.5
v 4.5 0 5.5
v 3.5 0 4.5
v 4.5 0 4.5
v -1.5 0 3.5
v -0.5 0 3.5
v -6.5 0 2.5
v -5.5 0 2.5
v -1.5 0 2.5
v -0.5 0 2.5
v -6.5 0 1.5
v -5.5 0 1.5
v -1.5 0 -1.5
v -0.5 0 -1.5
v 1.5 0 -1.5
v 2.5 0 -1.5
v -1.5 0 -2.5
v -0.5 0 -2.5
v 1.5 0 -2.5
v 2.5 0 -2.5
v -3.5 0 -4.5
v -2.5 0 -4.5
v 6.5 0 -4.5
v 7.5 0 -4.5
v -3.5 0 -5.5
v -2.5 0 -5.5
v 6.5 0 -5.5
v 7.5 0 -5.5
v 6.5 1 -3.5
v 7.5 1 -3.5
v 5.5 1 -4.5
v 6.5 1 -4.5
v 7.5 1 -4.5
v 8.5 1 -4.5
v 5.5 1 -5.5
v 6.5 1 -5.5
v 7.5 1 -5.5
v 8.5 1 -5.5
v 6.5 1 -6.5
v 7.5 1 -6.5
v 3.5 2 6.5
v 4.5 2 6.5
v 2.5 2 5.5
v 3.5 2 5.5
v 4.5 2 5.5
v 5.5 2 5.5
v 2.5 2 4.5
v 3.5 2 4.5
v 4.5 2 4.5
v 5.5 2 4.5
v 3.5 2 3.5
v 4.5 2 3.5
v -3.5 2 -3.5
v -2.5 2 -3.5
v -4.5 2 -4.5
v -3.5 2 -4.5
v -2.5 2 -4.5
v -1.5 2 -4.5
v -4.5 2 -5.5
v -3.5 2 -5.5
v -2.5 2 -5.5
v -1.5 2 -5.5
v -3.5 2 -6.5
v -2.5 2 -6.5
v -6.5 1 2.5
v -5.5 1 2.5
v -6.5 1 1.5
v -5.5 1 1.5
v -1.5 1 -1.5
v -0.5 1 -1.5
v -1.5 1 -2.5
v -0.5 1 -2.5
v -6.5 2 6.5
v -5.5 2 6.5
v -6.5 2 5.5
v -5.5 2 5.5
v 1.5 2 -1.5
v 2.5 2 -1.5
v 1.5 2 -2.5
v 2.5 2 -2.5
v 6.5 2 -3.5
v 7.5 2 -3.5
v 5.5 2 -4.5
v 6.5 2 -4.5
v 7.5 2 -4.5
v 8.5 2 -4.5
v 5.5 2 -5.5
v 6.5 2 -5.5
v 7.5 2 -5.5
v 8.5 2 -5.5
v 6.5 2 -6.5
v 7.5 2 -6.5
v 3.5 3 6.5
v 4.5 3 6.5
v 2.5 3 5.5
v 3.5 3 5.5
v 4.5 3 5.5
v 5.5 3 5.5
v 2.5 3 4.5
v 3.5 3 4.5
v 4.5 3 4.5
v 5.5 3 4.5
v -1.5 3 3.5
v -0.5 3 3.5
v 3.5 3 3.5
v 4.5 3 3.5
v -1.5 3 2.5
v -0.5 3 2.5
v -3.5 3 -3.5
v -2.5 3 -3.5
v -4.5 3 -4.5
v -3.5 3 -4.5
v -2.5 3 -4.5
v -1.5 3 -4.5
v -4.5 3 -5.5
v -3.5 3 -5.5
v -2.5 3 -5.5
v -1.5 3 -5.5
v -3.5 3 -6.5
v -2.5 3 -6.5

# faces
f 5/2/1 4/2/1 3/2/1
f 6/2/1 4/2/1 5/2/1
f 7/2/1 2/2/1 1/2/1
f 8/2/1 2/2/1 7/2/1
f 11/3/1 10/3/1 9/3/1
f 12/3/1 10/3/1 11/3/1
f 16/2/1 14/2/1 13/2/1
f 17/2/1 14/2/1 16/2/1
f 19/3/1 16/3/1 15/3/1
f 20/3/1 16/3/1 19/3/1
f 21/3/1 18/3/1 17/3/1
f 22/3/1 18/3/1 21/3/1
f 27/2/1 26/2/1 25/2/1
f 28/2/1 26/2/1 27/2/1
f 29/2/1 24/2/1 23/2/1
f 30/2/1 24/2/1 29/2/1
f 33/2/1 32/2/1 31/2/1
f 34/2/1 32/2/1 33/2/1
f 37/3/1 36/3/1 35/3/1
f 38/3/1 36/3/1 37/3/1
f 42/2/1 40/2/1 39/2/1
f 43/2/1 40/2/1 42/2/1
f 45/3/1 42/3/1 41/3/1
f 46/3/1 42/3/1 45/3/1
f 47/3/1 44/3/1 43/3/1
f 48/3/1 44/3/1 47/3/1
f 51/4/1 50/4/1 49/4/1
f 52/4/1 50/4/1 51/4/1
f 56/2/1 54/2/1 53/2/1
f 57/2/1 54/2/1 56/2/1
f 59/4/1 56/4/1 55/4/1
f 60/4/1 56/4/1 59/4/1
f 61/4/1 58/4/1 57/4/1
f 62/4/1 58/4/1 61/4/1
f 65/2/2 66/2/2 67/2/2
f 67/2/2 66/2/2 68/2/2
f 63/2/2 64/2/2 69/2/2
f 69/2/2 64/2/2 70/2/2
f 71/2/2 72/2/2 74/2/2
f 74/2/2 72/2/2 75/2/2
f 73/3/2 74/3/2 77/3/2
f 77/3/2 74/3/2 78/3/2
f 75/3/2 76/3/2 79/3/2
f 79/3/2 76/3/2 80/3/2
f 81/3/2 82/3/2 83/3/2
f 83/3/2 82/3/2 84/3/2
f 87/2/2 88/2/2 89/2/2
f 89/2/2 88/2/2 90/2/2
f 85/2/2 86/2/2 91/2/2
f 91/2/2 86/2/2 92/2/2
f 93/2/2 94/2/2 95/2/2
f 95/2/2 94/2/2 96/2/2
f 97/2/2 98/2/2 100/2/2
f 100/2/2 98/2/2 101/2/2
f 99/3/2 100/3/2 103/3/2
f 103/3/2 100/3/2 104/3/2
f 101/3/2 102/3/2 105/3/2
f 105/3/2 102/3/2 106/3/2
f 107/3/2 108/3/2 109/3/2
f 109/3/2 108/3/2 110/3/2
f 111/2/2 112/2/2 114/2/2
f 114/2/2 112/2/2 115/2/2
f 113/4/2 114/4/2 117/4/2
f 117/4/2 114/4/2 118/4/2
f 115/4/2 116/4/2 119/4/2
f 119/4/2 116/4/2 120/4/2
f 121/4/2 122/4/2 123/4/2
f 123/4/2 122/4/2 124/4/2
f 127/2/3 126/2/3 125/2/3
f 128/2/3 126/2/3 127/2/3
f 131/3/3 130/3/3 129/3/3
f 132/3/3 130/3/3 131/3/3
f 136/3/3 134/3/3 133/3/3
f 137/3/3 134/3/3 136/3/3
f 138/2/3 136/2/3 135/2/3
f 139/2/3 136/2/3 138/2/3
f 141/3/3 140/3/3 139/3/3
f 142/3/3 140/3/3 141/3/3
f 145/2/3 144/2/3 143/2/3
f 146/2/3 144/2/3 145/2/3
f 149/2/3 148/2/3 147/2/3
f 150/2/3 148/2/3 149/2/3
f 153/2/3 152/2/3 151/2/3
f 154/2/3 152/2/3 153/2/3
f 157/2/3 156/2/3 155/2/3
f 158/2/3 156/2/3 157/2/3
f 161/3/3 160/3/3 159/3/3
f 162/3/3 160/3/3 161/3/3
f 165/4/3 164/4/3 163/4/3
f 166/4/3 164/4/3 165/4/3
f 170/3/3 168/3/3 167/3/3
f 171/3/3 168/3/3 170/3/3
f 172/2/3 170/2/3 169/2/3
f 173/2/3 170/2/3 172/2/3
f 175/3/3 174/3/3 173/3/3
f 176/3/3 174/3/3 175/3/3
f 180/4/3 178/4/3 177/4/3
f 181/4/3 178/4/3 180/4/3
f 182/2/3 180/2/3 179/2/3
f 183/2/3 180/2/3 182/2/3
f 185/4/3 184/4/3 183/4/3
f 186/4/3 184/4/3 185/4/3
f 187/2/4 188/2/4 189/2/4
f 189/2/4 188/2/4 190/2/4
f 191/3/4 192/3/4 194/3/4
f 194/3/4 192/3/4 195/3/4
f 193/2/4 194/2/4 196/2/4
f 196/2/4 194/2/4 197/2/4
f 197/3/4 198/3/4 199/3/4
f 199/3/4 198/3/4 200/3/4
f 201/3/4 202/3/4 203/3/4
f 203/3/4 202/3/4 204/3/4
f 205/2/4 206/2/4 207/2/4
f 207/2/4 206/2/4 208/2/4
f 209/2/4 210/2/4 211/2/4
f 211/2/4 210/2/4 212/2/4
f 213/2/4 214/2/4 215/2/4
f 215/2/4 214/2/4 216/2/4
f 217/2/4 218/2/4 219/2/4
f 219/2/4 218/2/4 220/2/4
f 221/3/4 222/3/4 224/3/4
f 224/3/4 222/3/4 225/3/4
f 223/2/4 224/2/4 226/2/4
f 226/2/4 224/2/4 227/2/4
f 227/3/4 228/3/4 229/3/4
f 229/3/4 228/3/4 230/3/4
f 231/4/4 232/4/4 234/4/4
f 234/4/4 232/4/4 235/4/4
f 233/2/4 234/2/4 236/2/4
f 236/2/4 234/2/4 237/2/4
f 237/4/4 238/4/4 239/4/4
f 239/4/4 238/4/4 240/4/4
f 241/3/4 242/3/4 243/3/4
f 243/3/4 242/3/4 244/3/4
f 245/4/4 246/4/4 247/4/4
f 247/4/4 246/4/4 248/4/4
f 251/2/5 250/2/5 249/2/5
f 252/2/5 250/2/5 251/2/5
f 255/2/5 254/2/5 253/2/5
f 256/2/5 254/2/5 255/2/5
f 261/2/5 258/2/5 257/2/5
f 262/2/5 258/2/5 261/2/5
f 263/2/5 260/2/5 259/2/5
f 264/2/5 260/2/5 263/2/5
f 269/2/5 266/2/5 265/2/5
f 270/2/5 266/2/5 269/2/5
f 271/2/5 268/2/5 267/2/5
f 272/2/5 268/2/5 271/2/5
f 277/2/5 274/2/5 273/2/5
f 278/2/5 274/2/5 277/2/5
f 279/2/5 276/2/5 275/2/5
f 280/2/5 276/2/5 279/2/5
f 284/4/5 282/4/5 281/4/5
f 285/4/5 282/4/5 284/4/5
f 287/4/5 284/4/5 283/4/5
f 288/4/5 284/4/5 287/4/5
f 289/4/5 286/4/5 285/4/5
f 290/4/5 286/4/5 289/4/5
f 291/4/5 289/4/5 288/4/5
f 292/4/5 289/4/5 291/4/5
f 296/3/5 294/3/5 293/3/5
f 297/3/5 294/3/5 296/3/5
f 299/3/5 296/3/5 295/3/5
f 300/3/5 296/3/5 299/3/5
f 301/3/5 298/3/5 297/3/5
f 302/3/5 298/3/5 301/3/5
f 303/3/5 301/3/5 300/3/5
f 304/3/5 301/3/5 303/3/5
f 308/3/5 306/3/5 305/3/5
f 309/3/5 306/3/5 308/3/5
f 311/3/5 308/3/5 307/3/5
f 312/3/5 308/3/5 311/3/5
f 313/3/5 310/3/5 309/3/5
f 314/3/5 310/3/5 313/3/5
f 315/3/5 313/3/5 312/3/5
f 316/3/5 313/3/5 315/3/5
f 317/2/6 318/2/6 319/2/6
f 319/2/6 318/2/6 320/2/6
f 321/2/6 322/2/6 323/2/6
f 323/2/6 322/2/6 324/2/6
f 325/2/6 326/2/6 327/2/6
f 327/2/6 326/2/6 328/2/6
f 329/2/6 330/2/6 331/2/6
f 331/2/6 330/2/6 332/2/6
f 333/4/6 334/4/6 336/4/6
f 336/4/6 334/4/6 337/4/6
f 335/4/6 336/4/6 339/4/6
f 336/1/6 337/1/6 340/1/6
f 339/4/6 336/4/6 340/4/6
f 337/4/6 338/4/6 341/4/6
f 340/1/6 337/1/6 341/1/6
f 341/4/6 338/4/6 342/4/6
f 340/4/6 341/4/6 343/4/6
f 343/4/6 341/4/6 344/4/6
f 345/3/6 346/3/6 348/3/6
f 348/3/6 346/3/6 349/3/6
f 347/3/6 348/3/6 351/3/6
f 348/1/6 349/1/6 352/1/6
f 351/3/6 348/3/6 352/3/6
f 349/3/6 350/3/6 353/3/6
f 352/1/6 349/1/6 353/1/6
f 353/3/6 350/3/6 354/3/6
f 352/3/6 353/3/6 357/3/6
f 357/3/6 353/3/6 358/3/6
f 355/2/6 356/2/6 359/2/6
f 359/2/6 356/2/6 360/2/6
f 361/3/6 362/3/6 364/3/6
f 364/3/6 362/3/6 365/3/6
f 363/3/6 364/3/6 367/3/6
f 364/1/6 365/1/6 368/1/6
f 367/3/6 364/3/6 368/3/6
f 365/3/6 366/3/6 369/3/6
f 368/1/6 365/1/6 369/1/6
f 369/3/6 366/3/6 370/3/6
f 368/3/6 369/3/6 371/3/6
f 371/3/6 369/3/6 372/3/6
