# MagicaVoxel @ Ephtracy

# material
mtllib cesped5.mtl
usemtl palette

# normals
vn -1 0 0
vn 1 0 0
vn 0 0 1
vn 0 0 -1
vn 0 -1 0
vn 0 1 0

# texcoords
vt 0.0449219 0.5
vt 0.794922 0.5
vt 0.841797 0.5
vt 0.958984 0.5

# verts
v -5.5 0 -0.5
v -5.5 0 -1.5
v -5.5 0 -5.5
v -5.5 0 -6.5
v -5.5 1 -0.5
v -5.5 1 -1.5
v -5.5 2 5.5
v -5.5 2 4.5
v -5.5 2 -5.5
v -5.5 2 -6.5
v -5.5 3 5.5
v -5.5 3 4.5
v -4.5 0 5.5
v -4.5 0 4.5
v -4.5 2 6.5
v -4.5 2 5.5
v -4.5 2 4.5
v -4.5 2 3.5
v -4.5 3 6.5
v -4.5 3 5.5
v -4.5 3 4.5
v -4.5 3 3.5
v -1.5 0 2.5
v -1.5 0 1.5
v -1.5 2 2.5
v -1.5 2 1.5
v -1.5 2 -3.5
v -1.5 2 -4.5
v -1.5 3 -3.5
v -1.5 3 -4.5
v -0.5 0 -0.5
v -0.5 0 -1.5
v -0.5 0 -3.5
v -0.5 0 -4.5
v -0.5 1 -0.5
v -0.5 1 -1.5
v -0.5 2 -2.5
v -0.5 2 -3.5
v -0.5 2 -4.5
v -0.5 2 -5.5
v -0.5 3 -2.5
v -0.5 3 -3.5
v -0.5 3 -4.5
v -0.5 3 -5.5
v 0.5 1 6.5
v 0.5 1 5.5
v 0.5 2 6.5
v 0.5 2 5.5
v 1.5 0 6.5
v 1.5 0 5.5
v 1.5 1 7.5
v 1.5 1 6.5
v 1.5 1 5.5
v 1.5 1 4.5
v 1.5 2 7.5
v 1.5 2 6.5
v 1.5 2 5.5
v 1.5 2 4.5
v 3.5 0 4.5
v 3.5 0 3.5
v 3.5 0 -2.5
v 3.5 0 -3.5
v 3.5 1 4.5
v 3.5 1 3.5
v 3.5 3 -2.5
v 3.5 3 -3.5
v 5.5 0 1.5
v 5.5 0 0.5
v 5.5 1 1.5
v 5.5 1 0.5
v -4.5 0 -0.5
v -4.5 0 -1.5
v -4.5 0 -5.5
v -4.5 0 -6.5
v -4.5 1 -0.5
v -4.5 1 -1.5
v -4.5 2 -5.5
v -4.5 2 -6.5
v -3.5 0 5.5
v -3.5 0 4.5
v -3.5 2 6.5
v -3.5 2 5.5
v -3.5 2 4.5
v -3.5 2 3.5
v -3.5 3 6.5
v -3.5 3 5.5
v -3.5 3 4.5
v -3.5 3 3.5
v -2.5 2 5.5
v -2.5 2 4.5
v -2.5 3 5.5
v -2.5 3 4.5
v -0.5 0 2.5
v -0.5 0 1.5
v -0.5 2 2.5
v -0.5 2 1.5
v 0.5 0 -0.5
v 0.5 0 -1.5
v 0.5 0 -3.5
v 0.5 0 -4.5
v 0.5 1 -0.5
v 0.5 1 -1.5
v 0.5 2 -2.5
v 0.5 2 -3.5
v 0.5 2 -4.5
v 0.5 2 -5.5
v 0.5 3 -2.5
v 0.5 3 -3.5
v 0.5 3 -4.5
v 0.5 3 -5.5
v 1.5 2 -3.5
v 1.5 2 -4.5
v 1.5 3 -3.5
v 1.5 3 -4.5
v 2.5 0 6.5
v 2.5 0 5.5
v 2.5 1 7.5
v 2.5 1 6.5
v 2.5 1 5.5
v 2.5 1 4.5
v 2.5 2 7.5
v 2.5 2 6.5
v 2.5 2 5.5
v 2.5 2 4.5
v 3.5 1 6.5
v 3.5 1 5.5
v 3.5 2 6.5
v 3.5 2 5.5
v 4.5 0 4.5
v 4.5 0 3.5
v 4.5 0 -2.5
v 4.5 0 -3.5
v 4.5 1 4.5
v 4.5 1 3.5
v 4.5 3 -2.5
v 4.5 3 -3.5
v 6.5 0 1.5
v 6.5 0 0.5
v 6.5 1 1.5
v 6.5 1 0.5
v 1.5 1 7.5
v 1.5 2 7.5
v 2.5 1 7.5
v 2.5 2 7.5
v -4.5 2 6.5
v -4.5 3 6.5
v -3.5 2 6.5
v -3.5 3 6.5
v 0.5 1 6.5
v 0.5 2 6.5
v 1.5 0 6.5
v 1.5 1 6.5
v 1.5 2 6.5
v 2.5 0 6.5
v 2.5 1 6.5
v 2.5 2 6.5
v 3.5 1 6.5
v 3.5 2 6.5
v -5.5 2 5.5
v -5.5 3 5.5
v -4.5 0 5.5
v -4.5 2 5.5
v -4.5 3 5.5
v -3.5 0 5.5
v -3.5 2 5.5
v -3.5 3 5.5
v -2.5 2 5.5
v -2.5 3 5.5
v 3.5 0 4.5
v 3.5 1 4.5
v 4.5 0 4.5
v 4.5 1 4.5
v -1.5 0 2.5
v -1.5 2 2.5
v -0.5 0 2.5
v -0.5 2 2.5
v 5.5 0 1.5
v 5.5 1 1.5
v 6.5 0 1.5
v 6.5 1 1.5
v -5.5 0 -0.5
v -5.5 1 -0.5
v -4.5 0 -0.5
v -4.5 1 -0.5
v -0.5 0 -0.5
v -0.5 1 -0.5
v 0.5 0 -0.5
v 0.5 1 -0.5
v -0.5 2 -2.5
v -0.5 3 -2.5
v 0.5 2 -2.5
v 0.5 3 -2.5
v 3.5 0 -2.5
v 3.5 3 -2.5
v 4.5 0 -2.5
v 4.5 3 -2.5
v -1.5 2 -3.5
v -1.5 3 -3.5
v -0.5 0 -3.5
v -0.5 2 -3.5
v -0.5 3 -3.5
v 0.5 0 -3.5
v 0.5 2 -3.5
v 0.5 3 -3.5
v 1.5 2 -3.5
v 1.5 3 -3.5
v -5.5 0 -5.5
v -5.5 2 -5.5
v -4.5 0 -5.5
v -4.5 2 -5.5
v 0.5 1 5.5
v 0.5 2 5.5
v 1.5 0 5.5
v 1.5 1 5.5
v 1.5 2 5.5
v 2.5 0 5.5
v 2.5 1 5.5
v 2.5 2 5.5
v 3.5 1 5.5
v 3.5 2 5.5
v -5.5 2 4.5
v -5.5 3 4.5
v -4.5 0 4.5
v -4.5 2 4.5
v -4.5 3 4.5
v -3.5 0 4.5
v -3.5 2 4.5
v -3.5 3 4.5
v -2.5 2 4.5
v -2.5 3 4.5
v 1.5 1 4.5
v 1.5 2 4.5
v 2.5 1 4.5
v 2.5 2 4.5
v -4.5 2 3.5
v -4.5 3 3.5
v -3.5 2 3.5
v -3.5 3 3.5
v 3.5 0 3.5
v 3.5 1 3.5
v 4.5 0 3.5
v 4.5 1 3.5
v -1.5 0 1.5
v -1.5 2 1.5
v -0.5 0 1.5
v -0.5 2 1.5
v 5.5 0 0.5
v 5.5 1 0.5
v 6.5 0 0.5
v 6.5 1 0.5
v -5.5 0 -1.5
v -5.5 1 -1.5
v -4.5 0 -1.5
v -4.5 1 -1.5
v -0.5 0 -1.5
v -0.5 1 -1.5
v 0.5 0 -1.5
v 0.5 1 -1.5
v 3.5 0 -3.5
v 3.5 3 -3.5
v 4.5 0 -3.5
v 4.5 3 -3.5
v -1.5 2 -4.5
v -1.5 3 -4.5
v -0.5 0 -4.5
v -0.5 2 -4.5
v -0.5 3 -4.5
v 0.5 0 -4.5
v 0.5 2 -4.5
v 0.5 3 -4.5
v 1.5 2 -4.5
v 1.5 3 -4.5
v -0.5 2 -5.5
v -0.5 3 -5.5
v 0.5 2 -5.5
v 0.5 3 -5.5
v -5.5 0 -6.5
v -5.5 2 -6.5
v -4.5 0 -6.5
v -4.5 2 -6.5
v 1.5 0 6.5
v 2.5 0 6.5
v -4.5 0 5.5
v -3.5 0 5.5
v 1.5 0 5.5
v 2.5 0 5.5
v -4.5 0 4.5
v -3.5 0 4.5
v 3.5 0 4.5
v 4.5 0 4.5
v 3.5 0 3.5
v 4.5 0 3.5
v -1.5 0 2.5
v -0.5 0 2.5
v -1.5 0 1.5
v -0.5 0 1.5
v 5.5 0 1.5
v 6.5 0 1.5
v 5.5 0 0.5
v 6.5 0 0.5
v -5.5 0 -0.5
v -4.5 0 -0.5
v -0.5 0 -0.5
v 0.5 0 -0.5
v -5.5 0 -1.5
v -4.5 0 -1.5
v -0.5 0 -1.5
v 0.5 0 -1.5
v 3.5 0 -2.5
v 4.5 0 -2.5
v -0.5 0 -3.5
v 0.5 0 -3.5
v 3.5 0 -3.5
v 4.5 0 -3.5
v -0.5 0 -4.5
v 0.5 0 -4.5
v -5.5 0 -5.5
v -4.5 0 -5.5
v -5.5 0 -6.5
v -4.5 0 -6.5
v 1.5 1 7.5
v 2.5 1 7.5
v 0.5 1 6.5
v 1.5 1 6.5
v 2.5 1 6.5
v 3.5 1 6.5
v 0.5 1 5.5
v 1.5 1 5.5
v 2.5 1 5.5
v 3.5 1 5.5
v 1.5 1 4.5
v 2.5 1 4.5
v -4.5 2 6.5
v -3.5 2 6.5
v -5.5 2 5.5
v -4.5 2 5.5
v -3.5 2 5.5
v -2.5 2 5.5
v -5.5 2 4.5
v -4.5 2 4.5
v -3.5 2 4.5
v -2.5 2 4.5
v -4.5 2 3.5
v -3.5 2 3.5
v -0.5 2 -2.5
v 0.5 2 -2.5
v -1.5 2 -3.5
v -0.5 2 -3.5
v 0.5 2 -3.5
v 1.5 2 -3.5
v -1.5 2 -4.5
v -0.5 2 -4.5
v 0.5 2 -4.5
v 1.5 2 -4.5
v -0.5 2 -5.5
v 0.5 2 -5.5
v 3.5 1 4.5
v 4.5 1 4.5
v 3.5 1 3.5
v 4.5 1 3.5
v 5.5 1 1.5
v 6.5 1 1.5
v 5.5 1 0.5
v 6.5 1 0.5
v -5.5 1 -0.5
v -4.5 1 -0.5
v -0.5 1 -0.5
v 0.5 1 -0.5
v -5.5 1 -1.5
v -4.5 1 -1.5
v -0.5 1 -1.5
v 0.5 1 -1.5
v 1.5 2 7.5
v 2.5 2 7.5
v 0.5 2 6.5
v 1.5 2 6.5
v 2.5 2 6.5
v 3.5 2 6.5
v 0.5 2 5.5
v 1.5 2 5.5
v 2.5 2 5.5
v 3.5 2 5.5
v 1.5 2 4.5
v 2.5 2 4.5
v -1.5 2 2.5
v -0.5 2 2.5
v -1.5 2 1.5
v -0.5 2 1.5
v -5.5 2 -5.5
v -4.5 2 -5.5
v -5.5 2 -6.5
v -4.5 2 -6.5
v -4.5 3 6.5
v -3.5 3 6.5
v -5.5 3 5.5
v -4.5 3 5.5
v -3.5 3 5.5
v -2.5 3 5.5
v -5.5 3 4.5
v -4.5 3 4.5
v -3.5 3 4.5
v -2.5 3 4.5
v -4.5 3 3.5
v -3.5 3 3.5
v -0.5 3 -2.5
v 0.5 3 -2.5
v 3.5 3 -2.5
v 4.5 3 -2.5
v -1.5 3 -3.5
v -0.5 3 -3.5
v 0.5 3 -3.5
v 1.5 3 -3.5
v 3.5 3 -3.5
v 4.5 3 -3.5
v -1.5 3 -4.5
v -0.5 3 -4.5
v 0.5 3 -4.5
v 1.5 3 -4.5
v -0.5 3 -5.5
v 0.5 3 -5.5

# faces
f 5/2/1 2/2/1 1/2/1
f 6/2/1 2/2/1 5/2/1
f 9/2/1 4/2/1 3/2/1
f 10/2/1 4/2/1 9/2/1
f 11/4/1 8/4/1 7/4/1
f 12/4/1 8/4/1 11/4/1
f 16/2/1 14/2/1 13/2/1
f 17/2/1 14/2/1 16/2/1
f 19/4/1 16/4/1 15/4/1
f 20/4/1 16/4/1 19/4/1
f 21/4/1 18/4/1 17/4/1
f 22/4/1 18/4/1 21/4/1
f 25/2/1 24/2/1 23/2/1
f 26/2/1 24/2/1 25/2/1
f 29/3/1 28/3/1 27/3/1
f 30/3/1 28/3/1 29/3/1
f 35/2/1 32/2/1 31/2/1
f 36/2/1 32/2/1 35/2/1
f 38/2/1 34/2/1 33/2/1
f 39/2/1 34/2/1 38/2/1
f 41/3/1 38/3/1 37/3/1
f 42/3/1 38/3/1 41/3/1
f 43/3/1 40/3/1 39/3/1
f 44/3/1 40/3/1 43/3/1
f 47/3/1 46/3/1 45/3/1
f 48/3/1 46/3/1 47/3/1
f 52/2/1 50/2/1 49/2/1
f 53/2/1 50/2/1 52/2/1
f 55/3/1 52/3/1 51/3/1
f 56/3/1 52/3/1 55/3/1
f 57/3/1 54/3/1 53/3/1
f 58/3/1 54/3/1 57/3/1
f 63/2/1 60/2/1 59/2/1
f 64/2/1 60/2/1 63/2/1
f 65/2/1 62/2/1 61/2/1
f 66/2/1 62/2/1 65/2/1
f 69/2/1 68/2/1 67/2/1
f 70/2/1 68/2/1 69/2/1
f 71/2/2 72/2/2 75/2/2
f 75/2/2 72/2/2 76/2/2
f 73/2/2 74/2/2 77/2/2
f 77/2/2 74/2/2 78/2/2
f 79/2/2 80/2/2 82/2/2
f 82/2/2 80/2/2 83/2/2
f 81/4/2 82/4/2 85/4/2
f 85/4/2 82/4/2 86/4/2
f 83/4/2 84/4/2 87/4/2
f 87/4/2 84/4/2 88/4/2
f 89/4/2 90/4/2 91/4/2
f 91/4/2 90/4/2 92/4/2
f 93/2/2 94/2/2 95/2/2
f 95/2/2 94/2/2 96/2/2
f 97/2/2 98/2/2 101/2/2
f 101/2/2 98/2/2 102/2/2
f 99/2/2 100/2/2 104/2/2
f 104/2/2 100/2/2 105/2/2
f 103/3/2 104/3/2 107/3/2
f 107/3/2 104/3/2 108/3/2
f 105/3/2 106/3/2 109/3/2
f 109/3/2 106/3/2 110/3/2
f 111/3/2 112/3/2 113/3/2
f 113/3/2 112/3/2 114/3/2
f 115/2/2 116/2/2 118/2/2
f 118/2/2 116/2/2 119/2/2
f 117/3/2 118/3/2 121/3/2
f 121/3/2 118/3/2 122/3/2
f 119/3/2 120/3/2 123/3/2
f 123/3/2 120/3/2 124/3/2
f 125/3/2 126/3/2 127/3/2
f 127/3/2 126/3/2 128/3/2
f 129/2/2 130/2/2 133/2/2
f 133/2/2 130/2/2 134/2/2
f 131/2/2 132/2/2 135/2/2
f 135/2/2 132/2/2 136/2/2
f 137/2/2 138/2/2 139/2/2
f 139/2/2 138/2/2 140/2/2
f 143/3/3 142/3/3 141/3/3
f 144/3/3 142/3/3 143/3/3
f 147/4/3 146/4/3 145/4/3
f 148/4/3 146/4/3 147/4/3
f 152/3/3 150/3/3 149/3/3
f 153/3/3 150/3/3 152/3/3
f 154/2/3 152/2/3 151/2/3
f 155/2/3 152/2/3 154/2/3
f 157/3/3 156/3/3 155/3/3
f 158/3/3 156/3/3 157/3/3
f 162/4/3 160/4/3 159/4/3
f 163/4/3 160/4/3 162/4/3
f 164/2/3 162/2/3 161/2/3
f 165/2/3 162/2/3 164/2/3
f 167/4/3 166/4/3 165/4/3
f 168/4/3 166/4/3 167/4/3
f 171/2/3 170/2/3 169/2/3
f 172/2/3 170/2/3 171/2/3
f 175/2/3 174/2/3 173/2/3
f 176/2/3 174/2/3 175/2/3
f 179/2/3 178/2/3 177/2/3
f 180/2/3 178/2/3 179/2/3
f 183/2/3 182/2/3 181/2/3
f 184/2/3 182/2/3 183/2/3
f 187/2/3 186/2/3 185/2/3
f 188/2/3 186/2/3 187/2/3
f 191/3/3 190/3/3 189/3/3
f 192/3/3 190/3/3 191/3/3
f 195/2/3 194/2/3 193/2/3
f 196/2/3 194/2/3 195/2/3
f 200/3/3 198/3/3 197/3/3
f 201/3/3 198/3/3 200/3/3
f 202/2/3 200/2/3 199/2/3
f 203/2/3 200/2/3 202/2/3
f 205/3/3 204/3/3 203/3/3
f 206/3/3 204/3/3 205/3/3
f 209/2/3 208/2/3 207/2/3
f 210/2/3 208/2/3 209/2/3
f 211/3/4 212/3/4 214/3/4
f 214/3/4 212/3/4 215/3/4
f 213/2/4 214/2/4 216/2/4
f 216/2/4 214/2/4 217/2/4
f 217/3/4 218/3/4 219/3/4
f 219/3/4 218/3/4 220/3/4
f 221/4/4 222/4/4 224/4/4
f 224/4/4 222/4/4 225/4/4
f 223/2/4 224/2/4 226/2/4
f 226/2/4 224/2/4 227/2/4
f 227/4/4 228/4/4 229/4/4
f 229/4/4 228/4/4 230/4/4
f 231/3/4 232/3/4 233/3/4
f 233/3/4 232/3/4 234/3/4
f 235/4/4 236/4/4 237/4/4
f 237/4/4 236/4/4 238/4/4
f 239/2/4 240/2/4 241/2/4
f 241/2/4 240/2/4 242/2/4
f 243/2/4 244/2/4 245/2/4
f 245/2/4 244/2/4 246/2/4
f 247/2/4 248/2/4 249/2/4
f 249/2/4 248/2/4 250/2/4
f 251/2/4 252/2/4 253/2/4
f 253/2/4 252/2/4 254/2/4
f 255/2/4 256/2/4 257/2/4
f 257/2/4 256/2/4 258/2/4
f 259/2/4 260/2/4 261/2/4
f 261/2/4 260/2/4 262/2/4
f 263/3/4 264/3/4 266/3/4
f 266/3/4 264/3/4 267/3/4
f 265/2/4 266/2/4 268/2/4
f 268/2/4 266/2/4 269/2/4
f 269/3/4 270/3/4 271/3/4
f 271/3/4 270/3/4 272/3/4
f 273/3/4 274/3/4 275/3/4
f 275/3/4 274/3/4 276/3/4
f 277/2/4 278/2/4 279/2/4
f 279/2/4 278/2/4 280/2/4
f 285/2/5 282/2/5 281/2/5
f 286/2/5 282/2/5 285/2/5
f 287/2/5 284/2/5 283/2/5
f 288/2/5 284/2/5 287/2/5
f 291/2/5 290/2/5 289/2/5
f 292/2/5 290/2/5 291/2/5
f 295/2/5 294/2/5 293/2/5
f 296/2/5 294/2/5 295/2/5
f 299/2/5 298/2/5 297/2/5
f 300/2/5 298/2/5 299/2/5
f 305/2/5 302/2/5 301/2/5
f 306/2/5 302/2/5 305/2/5
f 307/2/5 304/2/5 303/2/5
f 308/2/5 304/2/5 307/2/5
f 313/2/5 310/2/5 309/2/5
f 314/2/5 310/2/5 313/2/5
f 315/2/5 312/2/5 311/2/5
f 316/2/5 312/2/5 315/2/5
f 319/2/5 318/2/5 317/2/5
f 320/2/5 318/2/5 319/2/5
f 324/3/5 322/3/5 321/3/5
f 325/3/5 322/3/5 324/3/5
f 327/3/5 324/3/5 323/3/5
f 328/3/5 324/3/5 327/3/5
f 329/3/5 326/3/5 325/3/5
f 330/3/5 326/3/5 329/3/5
f 331/3/5 329/3/5 328/3/5
f 332/3/5 329/3/5 331/3/5
f 336/4/5 334/4/5 333/4/5
f 337/4/5 334/4/5 336/4/5
f 339/4/5 336/4/5 335/4/5
f 340/4/5 336/4/5 339/4/5
f 341/4/5 338/4/5 337/4/5
f 342/4/5 338/4/5 341/4/5
f 343/4/5 341/4/5 340/4/5
f 344/4/5 341/4/5 343/4/5
f 348/3/5 346/3/5 345/3/5
f 349/3/5 346/3/5 348/3/5
f 351/3/5 348/3/5 347/3/5
f 352/3/5 348/3/5 351/3/5
f 353/3/5 350/3/5 349/3/5
f 354/3/5 350/3/5 353/3/5
f 355/3/5 353/3/5 352/3/5
f 356/3/5 353/3/5 355/3/5
f 357/2/6 358/2/6 359/2/6
f 359/2/6 358/2/6 360/2/6
f 361/2/6 362/2/6 363/2/6
f 363/2/6 362/2/6 364/2/6
f 365/2/6 366/2/6 369/2/6
f 369/2/6 366/2/6 370/2/6
f 367/2/6 368/2/6 371/2/6
f 371/2/6 368/2/6 372/2/6
f 373/3/6 374/3/6 376/3/6
f 376/3/6 374/3/6 377/3/6
f 375/3/6 376/3/6 379/3/6
f 376/1/6 377/1/6 380/1/6
f 379/3/6 376/3/6 380/3/6
f 377/3/6 378/3/6 381/3/6
f 380/1/6 377/1/6 381/1/6
f 381/3/6 378/3/6 382/3/6
f 380/3/6 381/3/6 383/3/6
f 383/3/6 381/3/6 384/3/6
f 385/2/6 386/2/6 387/2/6
f 387/2/6 386/2/6 388/2/6
f 389/2/6 390/2/6 391/2/6
f 391/2/6 390/2/6 392/2/6
f 393/4/6 394/4/6 396/4/6
f 396/4/6 394/4/6 397/4/6
f 395/4/6 396/4/6 399/4/6
f 396/1/6 397/1/6 400/1/6
f 399/4/6 396/4/6 400/4/6
f 397/4/6 398/4/6 401/4/6
f 400/1/6 397/1/6 401/1/6
f 401/4/6 398/4/6 402/4/6
f 400/4/6 401/4/6 403/4/6
f 403/4/6 401/4/6 404/4/6
f 405/3/6 406/3/6 410/3/6
f 410/3/6 406/3/6 411/3/6
f 407/2/6 408/2/6 413/2/6
f 413/2/6 408/2/6 414/2/6
f 409/3/6 410/3/6 415/3/6
f 410/1/6 411/1/6 416/1/6
f 415/3/6 410/3/6 416/3/6
f 411/3/6 412/3/6 417/3/6
f 416/1/6 411/1/6 417/1/6
f 417/3/6 412/3/6 418/3/6
f 416/3/6 417/3/6 419/3/6
f 419/3/6 417/3/6 420/3/6
