# MagicaVoxel @ Ephtracy

# material
mtllib blockroad3.mtl
usemtl palette

# normals
vn -1 0 0
vn 1 0 0
vn 0 0 1
vn 0 0 -1
vn 0 -1 0
vn 0 1 0

# texcoords
vt 0.970703 0.5
vt 0.978516 0.5
vt 0.982422 0.5
vt 0.986328 0.5

# verts
v -9 0 9
v -9 0 -9
v -9 17 9
v -9 17 1
v -9 17 -1
v -9 17 -8
v -9 18 9
v -9 18 1
v -9 18 -1
v -9 18 -8
v -9 18 -9
v 9 0 9
v 9 0 -2
v 9 0 -5
v 9 0 -9
v 9 18 9
v 9 18 -2
v 9 18 -5
v 9 18 -9
v -9 0 9
v -9 17 9
v -9 18 9
v -1 17 9
v -1 18 9
v 1 17 9
v 1 18 9
v 8 17 9
v 8 18 9
v 9 0 9
v 9 18 9
v -9 0 -9
v -9 18 -9
v 2 0 -9
v 2 18 -9
v 5 0 -9
v 5 18 -9
v 9 0 -9
v 9 18 -9
v -9 0 9
v 9 0 9
v 5 0 -2
v 9 0 -2
v 2 0 -5
v 5 0 -5
v 9 0 -5
v 2 0 -8
v 5 0 -8
v -9 0 -9
v 2 0 -9
v 5 0 -9
v 9 0 -9
v -9 18 9
v -1 18 9
v 1 18 9
v 8 18 9
v 9 18 9
v -8 18 8
v -1 18 8
v 1 18 8
v 8 18 8
v -9 18 1
v -8 18 1
v -9 18 -1
v -8 18 -1
v 2 18 -2
v 9 18 -2
v 5 18 -5
v 9 18 -5
v -9 18 -8
v -8 18 -8
v -9 18 -9
v 2 18 -9
v 5 18 -9
v 9 18 -9

# faces
f 3/2/1 2/2/1 1/2/1
f 4/2/1 2/2/1 3/2/1
f 5/2/1 2/2/1 4/2/1
f 6/2/1 2/2/1 5/2/1
f 7/4/1 4/4/1 3/4/1
f 8/2/1 5/2/1 4/2/1
f 8/4/1 4/4/1 7/4/1
f 9/4/1 6/4/1 5/4/1
f 9/2/1 5/2/1 8/2/1
f 10/2/1 2/2/1 6/2/1
f 10/4/1 6/4/1 9/4/1
f 11/2/1 2/2/1 10/2/1
f 12/2/2 13/2/2 16/2/2
f 13/3/2 14/3/2 17/3/2
f 16/2/2 13/2/2 17/2/2
f 14/1/2 15/1/2 18/1/2
f 17/3/2 14/3/2 18/3/2
f 18/1/2 15/1/2 19/1/2
f 23/2/3 21/2/3 20/2/3
f 23/4/3 22/4/3 21/4/3
f 24/4/3 22/4/3 23/4/3
f 25/2/3 23/2/3 20/2/3
f 25/2/3 24/2/3 23/2/3
f 26/2/3 24/2/3 25/2/3
f 27/2/3 25/2/3 20/2/3
f 27/4/3 26/4/3 25/4/3
f 28/4/3 26/4/3 27/4/3
f 29/2/3 27/2/3 20/2/3
f 29/2/3 28/2/3 27/2/3
f 30/2/3 28/2/3 29/2/3
f 31/2/4 32/2/4 33/2/4
f 33/2/4 32/2/4 34/2/4
f 33/3/4 34/3/4 35/3/4
f 35/3/4 34/3/4 36/3/4
f 35/1/4 36/1/4 37/1/4
f 37/1/4 36/1/4 38/1/4
f 41/2/5 40/2/5 39/2/5
f 42/2/5 40/2/5 41/2/5
f 43/2/5 41/2/5 39/2/5
f 44/3/5 42/3/5 41/3/5
f 44/2/5 41/2/5 43/2/5
f 45/3/5 42/3/5 44/3/5
f 46/2/5 43/2/5 39/2/5
f 46/1/5 44/1/5 43/1/5
f 46/1/5 45/1/5 44/1/5
f 47/1/5 45/1/5 46/1/5
f 48/2/5 46/2/5 39/2/5
f 49/3/5 47/3/5 46/3/5
f 49/2/5 46/2/5 48/2/5
f 50/1/5 45/1/5 47/1/5
f 50/3/5 47/3/5 49/3/5
f 51/1/5 45/1/5 50/1/5
f 52/4/6 53/4/6 57/4/6
f 53/2/6 54/2/6 58/2/6
f 57/4/6 53/4/6 58/4/6
f 54/4/6 55/4/6 59/4/6
f 58/2/6 54/2/6 59/2/6
f 55/2/6 56/2/6 60/2/6
f 59/4/6 55/4/6 60/4/6
f 52/4/6 57/4/6 61/4/6
f 58/2/6 59/2/6 62/2/6
f 61/4/6 57/4/6 62/4/6
f 57/2/6 58/2/6 62/2/6
f 59/2/6 60/2/6 62/2/6
f 61/2/6 62/2/6 63/2/6
f 62/2/6 60/2/6 64/2/6
f 63/2/6 62/2/6 64/2/6
f 64/2/6 60/2/6 65/2/6
f 60/2/6 56/2/6 66/2/6
f 65/2/6 60/2/6 66/2/6
f 65/3/6 66/3/6 67/3/6
f 67/3/6 66/3/6 68/3/6
f 63/4/6 64/4/6 69/4/6
f 64/2/6 65/2/6 70/2/6
f 69/4/6 64/4/6 70/4/6
f 69/2/6 70/2/6 71/2/6
f 65/3/6 67/3/6 72/3/6
f 71/2/6 70/2/6 72/2/6
f 70/2/6 65/2/6 72/2/6
f 67/1/6 68/1/6 73/1/6
f 72/3/6 67/3/6 73/3/6
f 73/1/6 68/1/6 74/1/6
